# xmcd
#
# Track frame offsets:
#	150
#	4382
#	20881
#	31608
#	48600
#	62789
#	85585
#	99460
#	113443
#	123582
#	145453
#	160679
#	173596
#	183774
#	199321
#	214460
#	235633
#	255983
#	276314
#	287026
#	307290
#
# Disc length: 4286 seconds
#
# Revision: 2
# Processed by: cddbd v1.5.2PL0 Copyright (c) Steve Scherf et al.
# Submitted via: audiograbber 1.83.01
#
DISCID=2b10bc15
DTITLE=John Denver - John Denver Live in Concert
DYEAR=2015
DGENRE=Country
TTITLE0=The Music Is You
TTITLE1=Farewell Andromeda
TTITLE2=Toledo
TTITLE3=Matthew
TTITLE4=Rocky Mountain Suite
TTITLE5=Sweet Surrender
TTITLE6=Grandma's Feather Bed
TTITLE7=Annie's Song
TTITLE8=The Eagle And The Hawk
TTITLE9=My Sweet Lady
TTITLE10=Rhymes And Reasons
TTITLE11=Forest Lawn
TTITLE12=Pickin' The Sun Down
TTITLE13=Thank God I'm A Country Boy
TTITLE14=Take Me Home, Country Roads
TTITLE15=Poems, Prayers And Promises
TTITLE16=Rocky Mountain High
TTITLE17=This Old Guitar
TTITLE18=Mother Nature
TTITLE19=Summer
TTITLE20=Annie's Other Song
EXTD=
EXTT0=
EXTT1=
EXTT2=
EXTT3=
EXTT4=
EXTT5=
EXTT6=
EXTT7=
EXTT8=
EXTT9=
EXTT10=
EXTT11=
EXTT12=
EXTT13=
EXTT14=
EXTT15=
EXTT16=
EXTT17=
EXTT18=
EXTT19=
EXTT20=
PLAYORDER=
